M48
METRIC,LZ,000.000
;FILE_FORMAT=3:3
;TYPE=PLATED
;Layer: PTH_Through
;EasyEDA v6.5.50, 2025-05-26 15:37:49
;1429cc00e0d14b0cb0da3a945b409c56,0174d7be58414838bfc95b9de2bc3700,10
;Gerber Generator version 0.2
;Holesize 1 = 0.306 mm
T01C0.306
;Holesize 2 = 0.750 mm
T02C0.750
;Holesize 3 = 0.751 mm
T03C0.751
;Holesize 4 = 0.798 mm
T04C0.798
;Holesize 5 = 0.889 mm
T05C0.889
;Holesize 6 = 0.900 mm
T06C0.900
;Holesize 7 = 1.000 mm
T07C1.000
;Holesize 8 = 1.199 mm
T08C1.199
%
G05
G90
T01
X090146Y020763
X083358Y031160
X096935Y017364
X090732Y018974
X091435Y-008926
X108698Y005486
X097977Y-014494
T02
X091578Y022733G85X091578Y022733
X089016Y022733G85X089016Y022733
X090297Y022733G85X090297Y022733
X099071Y022733G85X099071Y022733
X096509Y022733G85X096509Y022733
X097790Y022733G85X097790Y022733
X116713Y002529G85X116713Y002529
X116713Y005091G85X116713Y005091
X116713Y003810G85X116713Y003810
X116713Y-005091G85X116713Y-005091
X116713Y-002529G85X116713Y-002529
X116713Y-003810G85X116713Y-003810
X096382Y-022733G85X096382Y-022733
X098944Y-022733G85X098944Y-022733
X097663Y-022733G85X097663Y-022733
X088889Y-022733G85X088889Y-022733
X091451Y-022733G85X091451Y-022733
X090170Y-022733G85X090170Y-022733
X071247Y-002402G85X071247Y-002402
X071247Y-004964G85X071247Y-004964
X071247Y-003683G85X071247Y-003683
X071247Y005091G85X071247Y005091
X071247Y002529G85X071247Y002529
X071247Y003810G85X071247Y003810
T03
X078232Y002540
X079502Y002540
X080772Y002540
X078105Y-002540
X079375Y-002540
X080645Y-002540
T04
X064414Y002489
X064414Y-002489
X091491Y-029566
X096469Y-029566
X123546Y-002489
X123546Y002489
T05
X116205Y-011303
X113665Y-011303
X111125Y-011303
X108585Y-011303
X099060Y-012700
X096520Y-012700
X093980Y-012700
X091440Y-012700
X088900Y-012700
T06
X082296Y-011176
X074676Y-011176
X082296Y-008636
X074676Y-008636
X082296Y009652
X074676Y009652
T07
X101601Y035052
X101601Y032512
X101601Y029972
X101601Y027432
X101601Y024892
X101601Y022352
X101601Y019812
X101601Y017272
X101601Y014732
X086361Y014732
X086361Y017272
X086361Y019812
X086361Y022352
X086361Y024892
X086361Y027432
X086361Y029972
X086361Y032512
X086361Y035052
T08
X066903Y003505
X066903Y-003505
X090475Y-027076
X097485Y-027076
X121056Y-003505
X121056Y003505
M30
