G04 Layer: BoardOutlineLayer*
G04 EasyEDA v6.5.50, 2025-05-26 15:37:49*
G04 1429cc00e0d14b0cb0da3a945b409c56,0174d7be58414838bfc95b9de2bc3700,10*
G04 Gerber Generator version 0.2*
G04 Scale: 100 percent, Rotated: No, Reflected: No *
G04 Dimensions in millimeters *
G04 leading zeros omitted , absolute positions ,4 integer and 5 decimal *
%FSLAX45Y45*%
%MOMM*%

%ADD10C,0.2540*%
%ADD11C,0.0254*%
%ADD12C,0.0143*%
D10*
X8880673Y-3664239D02*
G01*
X8880673Y-3477943D01*
X8040344Y-2985249D02*
G01*
X7829621Y-3351359D01*
X7290280Y-3040928D02*
G01*
X7501006Y-2674818D01*
X6843869Y-2077288D02*
G01*
X6487088Y-2283277D01*
X5966388Y-1381399D02*
G01*
X6323172Y-1175410D01*
X5933186Y-530456D02*
G01*
X5737258Y-530456D01*
X5733125Y499541D02*
G01*
X5933186Y499541D01*
X6426723Y1339387D02*
G01*
X6043642Y1558287D01*
X6352387Y2098596D02*
G01*
X6735467Y1879693D01*
X7322601Y2554513D02*
G01*
X7116612Y2911297D01*
X8018490Y3431994D02*
G01*
X8224479Y3075213D01*
X10751416Y2955056D02*
G01*
X10977620Y3345639D01*
X11516126Y3033765D02*
G01*
X11289924Y2643182D01*
X11954403Y2075781D02*
G01*
X12311186Y2281770D01*
X12831886Y1379893D02*
G01*
X12475103Y1173906D01*
X12858160Y499541D02*
G01*
X13065150Y499541D01*
X13061017Y-530456D02*
G01*
X12858160Y-530456D01*
X12367021Y-1371683D02*
G01*
X12740619Y-1589603D01*
X12427077Y-2127140D02*
G01*
X12053478Y-1909224D01*
X11475671Y-2556019D02*
G01*
X11681660Y-2912800D01*
X10779785Y-3433500D02*
G01*
X10573796Y-3076717D01*
X9910671Y-3477943D02*
G01*
X9910671Y-3665214D01*
X8040344Y-2985249D02*
G01*
X7829621Y-3351359D01*
X7290280Y-3040928D02*
G01*
X7501006Y-2674818D01*
X6843869Y-2077288D02*
G01*
X6487088Y-2283277D01*
X5966388Y-1381399D02*
G01*
X6323172Y-1175410D01*
X5933186Y-530456D02*
G01*
X5737258Y-530456D01*
X5733125Y499541D02*
G01*
X5933186Y499541D01*
X6426723Y1339387D02*
G01*
X6043642Y1558287D01*
X6352387Y2098596D02*
G01*
X6735467Y1879693D01*
X7322601Y2554513D02*
G01*
X7116612Y2911297D01*
X8018490Y3431994D02*
G01*
X8224479Y3075213D01*
X10751416Y2955056D02*
G01*
X10977620Y3345639D01*
X11516126Y3033765D02*
G01*
X11289924Y2643182D01*
X11954403Y2075781D02*
G01*
X12311186Y2281770D01*
X12831886Y1379893D02*
G01*
X12475103Y1173906D01*
X12858160Y499541D02*
G01*
X13065150Y499541D01*
X13061017Y-530456D02*
G01*
X12858160Y-530456D01*
X12367021Y-1371683D02*
G01*
X12740619Y-1589603D01*
X12427077Y-2127140D02*
G01*
X12053478Y-1909224D01*
X11475671Y-2556019D02*
G01*
X11681660Y-2912800D01*
X10779785Y-3433500D02*
G01*
X10573796Y-3076717D01*
X9910671Y-3477943D02*
G01*
X9910671Y-3665214D01*
X8880673Y-3664239D02*
G01*
X8880673Y-3477943D01*
G75*
G01*
X8880673Y-3477943D02*
G03*
X9910671Y-3477943I514999J3261828D01*
G75*
G01*
X9910671Y-3665215D02*
G03*
X10779785Y-3433501I-511534J3664462D01*
G75*
G01*
X10573796Y-3076717D02*
G02*
X11475672Y-2556020I450183J261657D01*
G75*
G01*
X11681661Y-2912801D02*
G03*
X12427077Y-2127141I-2282522J2912051D01*
G75*
G01*
X12053479Y-1909224D02*
G02*
X12367021Y-1371684I156771J268770D01*
G75*
G01*
X12740620Y-1589603D02*
G03*
X13061018Y-530456I-3341481J1588852D01*
G75*
G01*
X12858161Y-530456D02*
G03*
X12858161Y499542I-3261829J514999D01*
G75*
G01*
X13065150Y499542D02*
G03*
X12831887Y1379893I-3666013J-500291D01*
G75*
G01*
X12475103Y1173907D02*
G02*
X11954403Y2075782I-259247J451574D01*
G75*
G01*
X12311187Y2281771D02*
G03*
X11516126Y3033766I-2912049J-2282524D01*
G75*
G01*
X11289924Y2643182D02*
G02*
X10751416Y2955056I-268984J156403D01*
G75*
G01*
X10977621Y3345640D02*
G03*
X8018490Y3431995I-1578482J-3346393D01*
G75*
G01*
X8224479Y3075214D02*
G02*
X7322602Y2554514I-451283J-259753D01*
G75*
G01*
X7116613Y2911297D02*
G03*
X6352388Y2098596I2282525J-2912048D01*
G75*
G01*
X6735468Y1879694D02*
G02*
X6426723Y1339388I-155148J-269710D01*
G75*
G01*
X6043643Y1558287D02*
G03*
X5733125Y499542I3355496J-1559035D01*
G75*
G01*
X5933186Y499542D02*
G03*
X5933186Y-530456I3261828J-514999D01*
G75*
G01*
X5737258Y-530456D02*
G03*
X5966389Y-1381399I3661879J529703D01*
G75*
G01*
X6323173Y-1175410D02*
G02*
X6843870Y-2077288I259425J-451473D01*
G75*
G01*
X6487089Y-2283277D02*
G03*
X7290280Y-3040929I2912050J2282523D01*
G75*
G01*
X7501006Y-2674818D02*
G02*
X8040345Y-2985249I269187J-156053D01*
G75*
G01*
X7829621Y-3351360D02*
G03*
X8880673Y-3664240I1569513J3350608D01*
G75*
G01*
X8880673Y-3477943D02*
G03*
X9910671Y-3477943I514999J3261828D01*
G75*
G01*
X9910671Y-3665215D02*
G03*
X10779785Y-3433501I-511534J3664462D01*
G75*
G01*
X10573796Y-3076717D02*
G02*
X11475672Y-2556020I451694J259040D01*
G75*
G01*
X11681661Y-2912801D02*
G03*
X12427077Y-2127141I-2282522J2912051D01*
G75*
G01*
X12053479Y-1909224D02*
G02*
X12367021Y-1371684I156771J268770D01*
G75*
G01*
X12740620Y-1589603D02*
G03*
X13061018Y-530456I-3341481J1588852D01*
G75*
G01*
X12858161Y-530456D02*
G03*
X12858161Y499542I-3261829J514999D01*
G75*
G01*
X13065150Y499542D02*
G03*
X12831887Y1379893I-3666013J-500291D01*
G75*
G01*
X12475103Y1173907D02*
G02*
X11954403Y2075782I-259247J451574D01*
G75*
G01*
X12311187Y2281771D02*
G03*
X11516126Y3033766I-2912049J-2282524D01*
G75*
G01*
X11289924Y2643182D02*
G02*
X10751416Y2955056I-268984J156403D01*
G75*
G01*
X10977621Y3345640D02*
G03*
X8018490Y3431995I-1578482J-3346393D01*
G75*
G01*
X8224479Y3075214D02*
G02*
X7322602Y2554514I-451283J-259753D01*
G75*
G01*
X7116613Y2911297D02*
G03*
X6352388Y2098596I2282525J-2912048D01*
G75*
G01*
X6735468Y1879694D02*
G02*
X6426723Y1339388I-155148J-269710D01*
G75*
G01*
X6043643Y1558287D02*
G03*
X5733125Y499542I3355496J-1559035D01*
G75*
G01*
X5933186Y499542D02*
G03*
X5933186Y-530456I3261828J-514999D01*
G75*
G01*
X5737258Y-530456D02*
G03*
X5966389Y-1381399I3661879J529703D01*
G75*
G01*
X6323173Y-1175410D02*
G02*
X6843870Y-2077288I259425J-451473D01*
G75*
G01*
X6487089Y-2283277D02*
G03*
X7290280Y-3040929I2912050J2282523D01*
G75*
G01*
X7501006Y-2674818D02*
G02*
X8040345Y-2985249I269187J-156053D01*
G75*
G01*
X7829621Y-3351360D02*
G03*
X8880673Y-3664240I1569513J3350608D01*
D11*
X10471127Y-450847D02*
G01*
X10471127Y-323847D01*
X10471127Y-323847D02*
G01*
X10496527Y-298447D01*
X10496527Y-298447D02*
G01*
X10814027Y-298447D01*
X10814027Y-298447D02*
G01*
X11118827Y-298447D01*
X11118827Y-298447D02*
G01*
X11144227Y-323847D01*
X11144227Y-323847D02*
G01*
X11144227Y-514347D01*
X11144227Y-514347D02*
G01*
X11112477Y-539747D01*
X11112477Y-539747D02*
G01*
X10496527Y-539747D01*
X10496527Y-539747D02*
G01*
X10471127Y-527047D01*
X10471127Y-527047D02*
G01*
X10471127Y-476247D01*
X10471127Y-476247D02*
G01*
X10471127Y-450847D01*
X12566650Y-819150D02*
G01*
X12566650Y-946150D01*
X12566650Y-946150D02*
G01*
X12541250Y-971550D01*
X12541250Y-971550D02*
G01*
X12223750Y-971550D01*
X12223750Y-971550D02*
G01*
X11918950Y-971550D01*
X11918950Y-971550D02*
G01*
X11893550Y-946150D01*
X11893550Y-946150D02*
G01*
X11893550Y-755650D01*
X11893550Y-755650D02*
G01*
X11925300Y-730250D01*
X11925300Y-730250D02*
G01*
X12541250Y-730250D01*
X12541250Y-730250D02*
G01*
X12566650Y-742950D01*
X12566650Y-742950D02*
G01*
X12566650Y-793750D01*
X12566650Y-793750D02*
G01*
X12566650Y-819150D01*

%LPD*%
M02*
