G04 Layer: BottomSilkscreenLayer*
G04 EasyEDA v6.5.50, 2025-05-26 15:37:49*
G04 1429cc00e0d14b0cb0da3a945b409c56,0174d7be58414838bfc95b9de2bc3700,10*
G04 Gerber Generator version 0.2*
G04 Scale: 100 percent, Rotated: No, Reflected: No *
G04 Dimensions in millimeters *
G04 leading zeros omitted , absolute positions ,4 integer and 5 decimal *
%FSLAX45Y45*%
%MOMM*%

%ADD10C,0.1524*%
%ADD11C,0.2540*%
%ADD12C,0.2032*%
%ADD13C,0.2030*%
%ADD14C,0.0103*%

%LPD*%
D10*
X11142449Y-901697D02*
G01*
X11065995Y-901697D01*
X11065995Y-901697D02*
G01*
X11065995Y-858009D01*
X11142449Y-834133D02*
G01*
X11065995Y-834133D01*
X11142449Y-834133D02*
G01*
X11142449Y-786889D01*
X11106127Y-834133D02*
G01*
X11106127Y-804923D01*
X11065995Y-834133D02*
G01*
X11065995Y-786889D01*
X11142449Y-762759D02*
G01*
X11065995Y-762759D01*
X11142449Y-762759D02*
G01*
X11142449Y-737359D01*
X11138893Y-726437D01*
X11131527Y-719071D01*
X11124161Y-715515D01*
X11113239Y-711959D01*
X11095205Y-711959D01*
X11084283Y-715515D01*
X11076917Y-719071D01*
X11069551Y-726437D01*
X11065995Y-737359D01*
X11065995Y-762759D01*
X11409149Y-901697D02*
G01*
X11332695Y-901697D01*
X11332695Y-901697D02*
G01*
X11332695Y-858009D01*
X11409149Y-834133D02*
G01*
X11332695Y-834133D01*
X11409149Y-834133D02*
G01*
X11409149Y-786889D01*
X11372827Y-834133D02*
G01*
X11372827Y-804923D01*
X11332695Y-834133D02*
G01*
X11332695Y-786889D01*
X11409149Y-762759D02*
G01*
X11332695Y-762759D01*
X11409149Y-762759D02*
G01*
X11409149Y-737359D01*
X11405593Y-726437D01*
X11398227Y-719071D01*
X11390861Y-715515D01*
X11379939Y-711959D01*
X11361905Y-711959D01*
X11350983Y-715515D01*
X11343617Y-719071D01*
X11336251Y-726437D01*
X11332695Y-737359D01*
X11332695Y-762759D01*
X11409149Y-644141D02*
G01*
X11409149Y-680717D01*
X11376383Y-684273D01*
X11379939Y-680717D01*
X11383749Y-669795D01*
X11383749Y-658873D01*
X11379939Y-647951D01*
X11372827Y-640585D01*
X11361905Y-637029D01*
X11354539Y-637029D01*
X11343617Y-640585D01*
X11336251Y-647951D01*
X11332695Y-658873D01*
X11332695Y-669795D01*
X11336251Y-680717D01*
X11340061Y-684273D01*
X11347173Y-687829D01*
X11409149Y-612899D02*
G01*
X11332695Y-583943D01*
X11409149Y-554733D02*
G01*
X11332695Y-583943D01*
X11650449Y-870709D02*
G01*
X11650449Y-907031D01*
X11617683Y-910841D01*
X11621239Y-907031D01*
X11625049Y-896109D01*
X11625049Y-885187D01*
X11621239Y-874519D01*
X11614127Y-867153D01*
X11603205Y-863597D01*
X11595839Y-863597D01*
X11584917Y-867153D01*
X11577551Y-874519D01*
X11573995Y-885187D01*
X11573995Y-896109D01*
X11577551Y-907031D01*
X11581361Y-910841D01*
X11588473Y-914397D01*
X11650449Y-839467D02*
G01*
X11573995Y-810511D01*
X11650449Y-781301D02*
G01*
X11573995Y-810511D01*
X10870222Y-847150D02*
G01*
X10877494Y-850788D01*
X10884768Y-858060D01*
X10888403Y-865334D01*
X10888403Y-879878D01*
X10884768Y-887150D01*
X10877494Y-894425D01*
X10870222Y-898060D01*
X10859312Y-901697D01*
X10841131Y-901697D01*
X10830222Y-898060D01*
X10822950Y-894425D01*
X10815678Y-887150D01*
X10812040Y-879878D01*
X10812040Y-865334D01*
X10815678Y-858060D01*
X10822950Y-850788D01*
X10830222Y-847150D01*
X10841131Y-847150D01*
X10841131Y-865334D02*
G01*
X10841131Y-847150D01*
X10888403Y-823153D02*
G01*
X10812040Y-823153D01*
X10888403Y-823153D02*
G01*
X10812040Y-772243D01*
X10888403Y-772243D02*
G01*
X10812040Y-772243D01*
X10888403Y-748243D02*
G01*
X10812040Y-748243D01*
X10888403Y-748243D02*
G01*
X10888403Y-722787D01*
X10884768Y-711880D01*
X10877494Y-704606D01*
X10870222Y-700971D01*
X10859312Y-697334D01*
X10841131Y-697334D01*
X10830222Y-700971D01*
X10822950Y-704606D01*
X10815678Y-711880D01*
X10812040Y-722787D01*
X10812040Y-748243D01*
X9423400Y3455438D02*
G01*
X9423400Y3377506D01*
X9418205Y3361921D01*
X9407814Y3351529D01*
X9392226Y3346335D01*
X9381835Y3346335D01*
X9366250Y3351529D01*
X9355858Y3361921D01*
X9350664Y3377506D01*
X9350664Y3455438D01*
X9316374Y3434656D02*
G01*
X9305983Y3439853D01*
X9290395Y3455438D01*
X9290395Y3346335D01*
X7639558Y115315D02*
G01*
X7649972Y110236D01*
X7660386Y99821D01*
X7665720Y89407D01*
X7670800Y73660D01*
X7670800Y47752D01*
X7665720Y32257D01*
X7660386Y21844D01*
X7649972Y11429D01*
X7639558Y6350D01*
X7618729Y6350D01*
X7608570Y11429D01*
X7598156Y21844D01*
X7592822Y32257D01*
X7587741Y47752D01*
X7587741Y73660D01*
X7592822Y89407D01*
X7598156Y99821D01*
X7608570Y110236D01*
X7618729Y115315D01*
X7639558Y115315D01*
X7624063Y26923D02*
G01*
X7592822Y-4063D01*
X7553452Y94487D02*
G01*
X7543038Y99821D01*
X7527290Y115315D01*
X7527290Y6350D01*
X7639558Y-392684D02*
G01*
X7649972Y-397763D01*
X7660386Y-408178D01*
X7665720Y-418592D01*
X7670800Y-434339D01*
X7670800Y-460247D01*
X7665720Y-475742D01*
X7660386Y-486155D01*
X7649972Y-496570D01*
X7639558Y-501650D01*
X7618729Y-501650D01*
X7608570Y-496570D01*
X7598156Y-486155D01*
X7592822Y-475742D01*
X7587741Y-460247D01*
X7587741Y-434339D01*
X7592822Y-418592D01*
X7598156Y-408178D01*
X7608570Y-397763D01*
X7618729Y-392684D01*
X7639558Y-392684D01*
X7624063Y-481076D02*
G01*
X7592822Y-512063D01*
X7548118Y-418592D02*
G01*
X7548118Y-413512D01*
X7543038Y-403097D01*
X7537704Y-397763D01*
X7527290Y-392684D01*
X7506715Y-392684D01*
X7496302Y-397763D01*
X7490968Y-403097D01*
X7485888Y-413512D01*
X7485888Y-423926D01*
X7490968Y-434339D01*
X7501381Y-449834D01*
X7553452Y-501650D01*
X7480554Y-501650D01*
X7289784Y-1129281D02*
G01*
X7289784Y-1238247D01*
X7289784Y-1129281D02*
G01*
X7243048Y-1129281D01*
X7227554Y-1134361D01*
X7222220Y-1139695D01*
X7217140Y-1150109D01*
X7217140Y-1160523D01*
X7222220Y-1170937D01*
X7227554Y-1176017D01*
X7243048Y-1181097D01*
X7289784Y-1181097D01*
X7253462Y-1181097D02*
G01*
X7217140Y-1238247D01*
X7182850Y-1150109D02*
G01*
X7172436Y-1144775D01*
X7156688Y-1129281D01*
X7156688Y-1238247D01*
X7315184Y-887981D02*
G01*
X7315184Y-996947D01*
X7315184Y-887981D02*
G01*
X7268448Y-887981D01*
X7252954Y-893061D01*
X7247620Y-898395D01*
X7242540Y-908809D01*
X7242540Y-919223D01*
X7247620Y-929637D01*
X7252954Y-934717D01*
X7268448Y-939797D01*
X7315184Y-939797D01*
X7278862Y-939797D02*
G01*
X7242540Y-996947D01*
X7202916Y-913889D02*
G01*
X7202916Y-908809D01*
X7197836Y-898395D01*
X7192502Y-893061D01*
X7182088Y-887981D01*
X7161514Y-887981D01*
X7151100Y-893061D01*
X7145766Y-898395D01*
X7140686Y-908809D01*
X7140686Y-919223D01*
X7145766Y-929637D01*
X7156180Y-945131D01*
X7208250Y-996947D01*
X7135352Y-996947D01*
X7315200Y928115D02*
G01*
X7315200Y819150D01*
X7315200Y928115D02*
G01*
X7268463Y928115D01*
X7252970Y923036D01*
X7247636Y917702D01*
X7242556Y907287D01*
X7242556Y896873D01*
X7247636Y886460D01*
X7252970Y881379D01*
X7268463Y876300D01*
X7315200Y876300D01*
X7278877Y876300D02*
G01*
X7242556Y819150D01*
X7197852Y928115D02*
G01*
X7140702Y928115D01*
X7171690Y886460D01*
X7156195Y886460D01*
X7145781Y881379D01*
X7140702Y876300D01*
X7135368Y860552D01*
X7135368Y850137D01*
X7140702Y834644D01*
X7151115Y824229D01*
X7166609Y819150D01*
X7182104Y819150D01*
X7197852Y824229D01*
X7202931Y829310D01*
X7208265Y839723D01*
X11898607Y-1065781D02*
G01*
X11898607Y-1148839D01*
X11903941Y-1164587D01*
X11909021Y-1169667D01*
X11919435Y-1174747D01*
X11929849Y-1174747D01*
X11940263Y-1169667D01*
X11945597Y-1164587D01*
X11950677Y-1148839D01*
X11950677Y-1138425D01*
X11864317Y-1086609D02*
G01*
X11854157Y-1081275D01*
X11838409Y-1065781D01*
X11838409Y-1174747D01*
D11*
X7751180Y114645D02*
G01*
X8149219Y114645D01*
X7738480Y-393354D02*
G01*
X8136519Y-393354D01*
X8102584Y-1117597D02*
G01*
X8127984Y-1117597D01*
X7594584Y-1117597D02*
G01*
X7569184Y-1117597D01*
X8102584Y-1117597D02*
G01*
X8102584Y-1041397D01*
X8102584Y-1193797D02*
G01*
X8102584Y-1117597D01*
X7594584Y-1193797D02*
G01*
X8102584Y-1193797D01*
X7594584Y-1117597D02*
G01*
X7594584Y-1193797D01*
X7594584Y-1041397D02*
G01*
X7594584Y-1117597D01*
X8102584Y-1041397D02*
G01*
X7594584Y-1041397D01*
X8102584Y-863597D02*
G01*
X8127984Y-863597D01*
X7594584Y-863597D02*
G01*
X7569184Y-863597D01*
X8102584Y-863597D02*
G01*
X8102584Y-787397D01*
X8102584Y-939797D02*
G01*
X8102584Y-863597D01*
X7594584Y-939797D02*
G01*
X8102584Y-939797D01*
X7594584Y-863597D02*
G01*
X7594584Y-939797D01*
X7594584Y-787397D02*
G01*
X7594584Y-863597D01*
X8102584Y-787397D02*
G01*
X7594584Y-787397D01*
X8102600Y965200D02*
G01*
X8128000Y965200D01*
X7594600Y965200D02*
G01*
X7569200Y965200D01*
X8102600Y965200D02*
G01*
X8102600Y1041400D01*
X8102600Y889000D02*
G01*
X8102600Y965200D01*
X7594600Y889000D02*
G01*
X8102600Y889000D01*
X7594600Y965200D02*
G01*
X7594600Y889000D01*
X7594600Y1041400D02*
G01*
X7594600Y965200D01*
X8102600Y1041400D02*
G01*
X7594600Y1041400D01*
D12*
X10731477Y-1003297D02*
G01*
X10731477Y-1257297D01*
X11747477Y-1257297D01*
X11747477Y-1003297D01*
X11556977Y-1003297D01*
D13*
X10731477Y-1003297D02*
G01*
X11556977Y-1003297D01*
D11*
G75*
G01*
X7751181Y114645D02*
G02*
X8149219Y114645I199019J139357D01*
G75*
G01*
X7738481Y-393355D02*
G02*
X8136519Y-393355I199019J139357D01*
M02*
